# xmcd
#
# Track frame offsets:
#	150
#	17591
#	40572
#	67199
#	92240
#	113845
#	141993
#	159982
#	187303
#	207361
#	215548
#	242491
#
# Disc length: 3711 seconds
#
# Revision: 1
# Processed by: cddbd v1.5.2PL0 Copyright (c) Steve Scherf et al.
# Submitted via: audiograbber 1.83.01
#
DISCID=ac0e7d0c
DTITLE=Tedeschi Trucks Band - Revelator
DYEAR=2011
DGENRE=Blues
TTITLE0=Come See About Me
TTITLE1=Don't Let Me Slide
TTITLE2=Midnight In Harlem
TTITLE3=Bound For Glory
TTITLE4=Simple Things
TTITLE5=Until You Remember
TTITLE6=Ball And Chain
TTITLE7=These Walls
TTITLE8=Learn How To Love
TTITLE9=Shrimps And Grits (Interlude)
TTITLE10=Love Has Something Else To Say
TTITLE11=Shelter
EXTD=
EXTT0=
EXTT1=
EXTT2=
EXTT3=
EXTT4=
EXTT5=
EXTT6=
EXTT7=
EXTT8=
EXTT9=
EXTT10=
EXTT11=
PLAYORDER=
